<svg viewBox="154.3051 249.3974 428.3898 168.2051" width="5000" height="1963.224848023926" xmlns="http://www.w3.org/2000/svg" xmlns:xlink="http://www.w3.org/1999/xlink" preserveAspectRatio="none"><defs></defs><style>.aD6z1nYkhcolor {fill:#FFFFFF;fill-opacity:0.92;}.aD6z1nYkhstrokeColor-str {stroke:#D9D9D9;stroke-opacity:1;}.aLgOaV3zRcolors-0 {fill:#FFFFFF;fill-opacity:0.98;}.ashadowNTNWzwxntE-floo {flood-color:#4B4B4B;flood-opacity:0.5;}.aWdK521eOvcolor {fill:#FFFFFF;fill-opacity:1;}.aWdK521eOvstrokeColor-str {stroke:#D9D9D9;stroke-opacity:1;}</style><g opacity="0.2" transform="rotate(0 154.3051 249.3974)">
<svg width="428.3898" height="168.2051" x="154.3051" y="249.3974" version="1.1" preserveAspectRatio="none" viewBox="52.43501281738281 192.7569274902344 462.04693603515625 181.41897583007812">
  <g transform="matrix(1 0 0 1 0 0)" ><g><path d="M411.233 257.455c-.944 2.59-3.294 3.195-5.565 3.694-4.564 1.002-9.112 1.947-12.875 4.993-2.227 1.802-5.192 1.191-7.749 2.332-3.289 1.468-6.963 1.941-10.274 3.767-2.976 1.642-6.506 2.278-9.78 3.392-3.45 1.174-6.861 2.455-10.257 3.77-8.389 3.25-17.124 5.616-25.679 8.7 5.165-.245 10.262-1.508 15.328-.702l2.776-2.612c.664.944 1.482 1.373 2.639 1.242 3.433-.389 7.078.961 10.304-.666 3.174-1.6 6.924.849 9.879-1.774.463-.411 1.62-.148 2.437-.043 6.554.844 12.884-1.673 19.406-1.256 4.031-1.967 8.523-.389 12.508-1.427 4.043-1.053 8.122-.31 11.942-1.226 3.816-.915 7.565-.803 11.34-1.19 1.076-.11 2.083-.784 3.216-.175-.073-2.779 4.064-2.11 3.947-4.416-.115-2.246 3.166-.768 2.788-3.243-.134-.879 1.785-2.069 2.773-3.124l4.331-.237.313-3.127c1.168-1.136 3.477.464 4.217-1.695l1.591 1.465c2.978-3.408 6.162.531 9.345-.232 1.815 1.912 4.238 1.473 6.314 1.134 2.256-.369 3.622 1.623 5.732 1.401 1.581-.166 1.997 1.8 3.282 2.338l.952-.949 5.332 2.715c.43 1.995 2.53 3.336 4.027 4.995v4.438c-3.411.311-6.996-.718-9.673 2.074 1.677 2.91 6.887.743 7.691 5.318l4.156.235c.984.824.273 1.944.576 3.168-1.863.957-3.971.128-5.723.511-1.829 1.593.21 2.157.585 3.124l-1.792 1.786c-6.19 0-12.413-.09-18.63.05-2.128.048-4.487-.958-6.42 1.111-.349.374-2.009.563-2.821-.401-1.314-1.561-3.14-.281-4.694-.92-.941-1.58-.739-3 .803-4.191-8.875-2.243-6.435-2.788-18.634-.624a3.725 3.725 0 0 1-1.242 0c-5.331-.898-10.479.913-15.636 1.538-3.995.484-8.166.066-11.923 1.118-5.888 1.648-12.287.163-17.896 3.36-1.255.716-3.252.332-4.875.158-1.733-.187-2.65 1.591-4.478 1.354-3.609-.469-6.971.902-10.29 2.117-2.194.803-4.49.142-6.83 1.163-2.687 1.172-2.956.56-4.348 1.396-2.674.76-5.163-.64-7.477 1.034-1.948 1.409-4.942-.721-6.761 1.674-3.49-.67-6.769.604-10.051 1.313-5.635 1.218-11.208 2.642-17.012 2.395-2.123 1.564-4.458 2.119-7.058 2.634-10.091 1.998-20.579 2.428-30.066 6.972-1.225.587-2.409.326-3.593.315-4.215-.037-8.106 1.306-11.939 2.764-2.742 1.043-5.526 2.134-8.408 2.13-2.523-.003-4.644.737-6.764 1.8-.513.257-.788.883-1.544.801-4.741-.515-9.305.627-13.444 2.584-4.337 2.05-9.099 1.95-13.447 3.611-5.223 1.996-10.828 2.726-16.026 4.88-1.415.586-3.281.089-4.932.089l-2.444 2.437c-3.855-.628-7.096 2.613-11.065 2.486-4.067-.13-7.072 4.151-11.251 2.381l-2.364 2.357c-7.8.775-14.642 5.656-22.7 5.251-3.478 3.196-8.096 3.583-12.292 4.909-6.079 1.92-11.983 4.547-18.464 5.016-5.985 3.836-13.168 4.206-19.623 6.706a30.368 30.368 0 0 1-7.9 1.9c-2.484.245-4.708.634-6.443 2.555h-9.977c-1.479-1.199.459-3.602-1.933-4.282l1.232-1.228c-1.289-2.151-4.374-2.058-5.393-4.4h-3.874c-1.031-1.43-3.068-2.129-3.207-4.173.96-1.339 1.253.011 1.841.282 2.296-1.174 2.413-3.717 3.48-5.681 2.289-.562 3.62-2.225 5.044-4.125l-4.053-4.941v-2.064c-2.878-1.707-5.547 2.476-8.49.449-2.521-.791-.454-4.01-2.846-5.21l4.897-2.266c.847-.847-.482-2.609 1.065-3.653.917-.618 2.288-1.313 1.57-2.804 2.082-1.242 4.449-1.286 5.498-3.959.78-1.987 3.494-2.254 5.409-3.053l.799-2.235h2.63c.915-2.31 1.958-4.494 5.165-3.65l.817-2.304c2.959-.874 6.315-.945 8.184-4.023 5.28-1.023 9.227-4.757 13.849-7.085 6.181-3.112 12.954-5.043 18.655-9.081 1.508-1.068 3.267-1.172 4.918-1.659 4.101-1.211 7.265-4.377 11.497-5.316 3.226-.716 6.056-2.366 8.98-3.87 5.468-2.813 11.388-4.55 17.18-6.604 4.681-1.66 9.752-2.521 13.798-5.745 1.373-1.094 3.05-.181 4.649-.789 7.529-2.866 14.747-6.612 22.713-8.283 1.807-2.559 4.835-2.383 7.392-3.178 2.402-.747 4.823-1.447 7.316-1.977 3.497-.743 6.889-2.418 10.235-3.756 6.458-2.582 13.205-4.141 19.683-6.567 6.292-2.356 12.638-4.6 19.07-6.534 2.598-.781 5.147-1.379 7.705-2.467 2.392-1.017 5.362-.876 7.534-2.841 5.257.229 9.533-3.116 14.61-3.921 4.846-.768 9.467-3.414 14.217-4.512 5.871-1.357 11.663-3.206 17.663-4.174 1.843-.297 3.992-1.269 5.931-2.103 3.512-1.51 7.601-1.615 11.321-2.732 5.557-1.668 11.265-2.71 16.835-4.374 4.236-1.265 8.746-1.871 13.091-3.003 7.681-2.001 15.404-3.842 23.09-5.828 3.188-.824 6.634-.914 9.926-1.626 4.946-1.07 10.027-1.6 14.788-3.384 1.66-.622 3.235-.277 4.831-.312 2.809-.062 5.697.175 8.172-1.334 2.241-1.366 4.644-1.478 6.971-1.114 2.586.404 4.41-1.636 6.978-1.455 2.276.16 4.939 1.191 7.019-.974.21-.219.789-.189 1.171-.123 5.335.914 10.392-1.429 15.676-1.287 5.392.144 10.841-.403 16.169.197 3.133.353 6.23 1.251 8.661 1.093 4.115 1.374 6.129 4.283 8.632 6.565.647 3.863.136 7.579-1.265 11.255 1.858 1.92 5.561-.918 6.352 3.512l-1.732 3.412c-2.586.377-1.359-1.952-2.511-2.397-.697.927-2.148 1.371-1.944 2.522.404 1.711 2.031.722 2.516 1.879-.004.473.199 1.038-.332 1.585-1.422 1.463-3.23 2.139-5.342 2.84-1.193 5.8-7.803 3.851-11.157 7.385-3.127-.971-5.868 1.375-8.801 1.22-.688.952-.223 1.972-1.085 2.4-.935.218-1.636-.092-2.127-.869-2.569 1.227-5.504.815-7.786 2.265-1.015-1.167-.002-1.531.264-1.628 3.073-1.123 5.715-3.21 8.927-3.993 4.598-1.122 8.369-3.884 12.369-6.187.208-.12.121-.751.214-1.473-1.799-1.064-3.834-.281-5.406-.472-6.912 4.539-14.64 6.795-21.774 11.152-3.437-1.225-6.436 1.294-9.596 2.668-1.579.687-2.694 1.647-4.781.176 4.695-4.384 10.896-6.513 15.934-11.7-2.792.604-4.925-.756-6.998.947-1.834 1.508-4.35-.589-6.351 1.266-1.643 1.523-4.501-.77-6.241 1.382-2.154-.935-4.225.182-6.316.357-2.121.177-4.027 1.775-6.339 1.17-1.322 2.56-4.483.012-5.962 2.135-2.13-.903-3.714.123-5.432 1.581-6.831-.515-13.292 2.263-19.878 4.018-3.518.937-7.116 1.746-10.624 2.82-3.368 1.031-6.804 1.793-10.43 2.032-3.161.209-6.243 1.809-9.33 2.882-2.979 1.035-5.866 2.316-9.169 1.954-1.362-.149-2.567.11-3.952.994-3.789 2.419-8.441 2.922-12.702 3.713-5.398 1.002-10.143 4.429-15.844 3.95-2.313 2.464-5.701 2.295-8.572 3.335-3.137 1.137-6.408 2.329-10.202 1.443-1.382 2.804-4.412 3.289-6.906 3.78-9.339 1.839-18.171 5.275-27.163 8.153-4.767 1.525-9.606 2.805-14.364 4.356-3.31 1.079-6.318 3.512-10.153 2.548-2.595 2.864-6.467 2.507-9.722 3.536-2.463.778-4.034 2.764-6.815 3.224-7.237 1.197-13.812 4.603-20.383 7.776-1.55.749-3.26-.352-4.644.824-1.914 1.627-4.642.129-6.707 1.925-1.702 1.479-4.222 1.873-6.278 2.772-4.442 1.942-9.49 2.03-13.594 4.76-2.607-.728-3.097 3.129-5.833 2.556-2.273-.476-3.923 1.401-5.841 2.331-2.399 1.163-5.039 1.976-7.664 2.47-1.457.274-2.905.28-3.672 1.646-.944 1.682-2.619.594-3.868 1.251-3.392 1.782-7.081 2.999-10.61 4.416-3.348 1.344-6.154 4.046-10.188 4.061-3.507.013-5.882 3.821-9.66 3.623-2.111 2.624-5.638 2.507-8.207 4.213-1.973 1.311-4.252 1.768-6.396 2.484 0 .751 0 1.373.36 1.902-1.562.379-3.015-.586-4.551 1.483 1.776-.49 3.027.529 4.551-1.483 5.944-.984 11.883-3.366 17.93-5.283 3.664-1.162 7.906-.48 11.04-3.316 6.612.056 12.226-3.571 18.381-5.213 3.831-1.022 8.298-.51 11.57-3.48 4.303.598 7.961-1.935 11.957-2.78 4.453-.942 9.045-2.198 13.492-3.149 5.521-1.18 10.814-3.149 16.368-4.248 4.668-.924 9.461-1.817 14.072-3.384 5.473-1.86 11.201-2.976 16.815-4.425 5.612-1.449 11.168-3.192 16.853-4.25 2.925-.544 5.473-2.335 8.276-2.458 3.068-.134 5.811-1.003 8.513-2.079 2.591-1.032 5.639.225 7.958-1.789.459-.398.921-.793 1.426-1.227 2.298-.118 4.548-.432 6.912-1.089 5.794-1.61 11.674-3.039 17.663-3.958 4.007-.615 8.036-1.518 11.842-2.884 3.645-1.307 7.51-1.295 11.191-3.005 3.34-1.551 7.506-1.96 11.231-2.923 8.916-2.304 17.835-4.723 26.513-7.92 7.733-2.849 15.598-5.342 23.378-8.068 1.626-.57 3.134-1.472 5.189-2.458h4.981zM178.35 295.952c-2.058-.398-3.226 1.331-5.677 2.063 2.482.456 4.113.811 5.677-.09 0-.783 0-1.378-.677-1.771 1.479-.423 2.589.365 3.072-.942-.862-.83-1.653-.726-2.395.74zm260.281-9.935c-3.111 0-6.223-.011-9.334.003-2.994.014-5.881.423-8.858 1.054-4.055.859-8.346.662-12.545 1.147-4.759.549-9.467 2.397-14.387 1.525-1.1-.195-1.923.864-2.676.952-3.054.356-6.211-.08-9.239.378-2.825.427-5.291 2.363-8.316 2.411-2.777.043-5.686-.644-8.196 1.224-7.282-.531-14.116 2.768-21.37 2.495-.593-.022-1.483-.11-1.738.218-1.295 1.668-3.071 1.061-4.585.94-1.755-.14-2.654 1.844-4.476 1.341-2.668-.736-4.891 1.927-7.56 1.194-2.958-.812-5.599.718-8.143 1.462-3.003.878-5.894.914-8.876 1.06-.971.048-1.909.163-2.911.434-6.964 1.889-13.868 4.062-21.158 4.58-2.729.194-5.314 1.469-8.191 1.404-.521-.012-2.172.681-3.052 1.602l1.556 1.623 24.073-5.737 1.182.934c3.248-.836 6.217-1.707 9.234-2.347 3.263-.693 6.886-.523 9.776-1.917 3.127-1.508 6.614.978 9.314-1.576 3.149.556 6.017-3.335 9.295-.42l1.978-2.171c1.815 1.019 3.792.02 5.063 1.059 1.238-.722.076-2.536 1.804-2.447 1.042-.183 1.397.723 2.017 1.197 1.675-1.935 3.391-1.547 5.034-.153 2.332-1.77 5.616-1.181 7.633-3.635l.988 2.84 1.28-2.735 1.395 1.246c5.95-2.378 12.742-.331 18.007-3.852 1.172.378 1.379 1.502 2.409 1.359.756.199 1.024-.776 1.497-.8 3.573-.182 6.892-1.797 10.52-1.728 1.536.029 3.015-.149 4.643-.728 2.483-.883 5.332-1.118 8.029-1.634 3.363-.644 6.848-.204 10.299-.519 3.062-.279 6.169-1.693 9.282-.751 1.613.489 1.855-1.662 3.315-1.27 1.811 1.457 3.826 1.745 5.988.666 0-.48 0-.894-.15-2.859.408 1.604 1.452.568 2.009.937.647.429.951 1.398 2.497 1.154.504-2.924 3.929.165 5.342-2.091-3.326.001-6.522.001-9.698.931zm-285.812 19.87c-1.683-.286-2.654 1.508-4.471 1.388-1.032-.068-2.672.615-3.363 2.107 3.59 1.014 6.358-1.616 10.097-1.237-1.09-1.089-1.676-1.674-2.263-2.258zm107.737 9.447c3.224 1.868 5.609-1.554 8.319-.751.556-1.264.499-1.978-.607-2.647l-5.418 2.724-2.085-1.33-.209 2.004zM67.549 347.539c.915 1.084 2.115.468 3.226.421l1.716-1.711-3.427-1.716c-.287.935-1.66 1.114-1.515 3.006zm381.684-127.341c.885-.837.909-1.666-.04-2.489-.57.091-1.248-.261-1.674.488-.544 1.543.108 2.153 1.714 2.001zm-94.177 20.3c-1.312-.658-2.417-.635-4.17.485 1.334.184 1.897.229 2.445.345.617.13.657 1.575 1.802.746l-.077-1.576zm-9.72 3.281c2.779.109 2.798-.916 1.833-2.563l-1.833.35v2.213zm-96.609 29.82c.887-.839.911-1.667-.038-2.49-.57.091-1.248-.26-1.677.492-.336.743-.264 1.446.485 1.999l1.23-.001zm201.114 13.055c.84.883 1.67.907 2.496-.04-.092-.569.261-1.244-.489-1.67-1.549-.541-2.16.109-2.007 1.71zm-157.023-30.136l-2.636 1.417c1.163.965 1.849.981 2.636.289v-1.706zm-158.223 57.439c1.592.9 2.699.792 4.065-.003-1.479-.835-2.581-.835-4.065.003zm-4.565 1.503c1.059-.208 2.339 1.076 3.484-.339-1.284-.789-2.387-.731-3.484.339zm367.756-92.789c-.905.84-.905 1.668 0 2.508.904-.84.904-1.668 0-2.508zm8.717-7.427c.905-.84.905-1.668 0-2.508-.904.84-.904 1.668 0 2.508z" data-color="1" class="aLgOaV3zRcolors-0"></path><path d="M448.594 242.553v-1.91l3.913-1.923c1.216.523 1.381 1.815.908 1.994-1.605.608-2.829 2.293-4.821 1.839z" data-color="1" class="aLgOaV3zRcolors-0"></path><path d="M422.48 251.343h3.31c-1.207 1.661-1.207 1.661-2.421 2.376-1.103-.23-.962-1.067-.889-2.376z" data-color="1" class="aLgOaV3zRcolors-0"></path><path d="M436.779 248.76c-1.606.152-2.258-.457-1.714-2.001.426-.748 1.104-.396 1.674-.488.949.823.925 1.652.04 2.489z" data-color="1" class="aLgOaV3zRcolors-0"></path><path d="M63.826 345.576l-.184 2.359-1.764.148c-.756-.68-.757-1.367-.201-2.34l2.149-.167z" data-color="1" class="aLgOaV3zRcolors-0"></path><path d="M449.19 242.396c-1.755 2.201-3.015.929-4.86 1.644 1.609-2.166 3.061-1.202 4.86-1.644z" data-color="1" class="aLgOaV3zRcolors-0"></path><path d="M410.827 257.564c.907-1.518 1.726-1.392 2.48-1.336.537.04 1.064.223 1.72.37-1.139 1.536-2.592.571-4.2.966z" data-color="1" class="aLgOaV3zRcolors-0"></path><path d="M427.341 250.655c.958-.886 1.647-.844 2.422-.226-.476 1.369-1.273.989-2.422.226z" data-color="1" class="aLgOaV3zRcolors-0"></path><path d="M438.642 245.657c.404-.579.819-.579 1.224 0-.405.58-.82.58-1.224 0z" data-color="1" class="aLgOaV3zRcolors-0"></path><path d="M420.573 253.74c.581.403.581.817 0 1.22-.581-.403-.581-.817 0-1.22z" data-color="1" class="aLgOaV3zRcolors-0"></path><path d="M416.837 256.202c-.581-.403-.581-.817 0-1.22.581.403.581.817 0 1.22z" data-color="1" class="aLgOaV3zRcolors-0"></path></g></g>
</svg>
</g><g opacity="1" transform="rotate(0 201.1833 278.6189)">
<svg width="355.0232" height="69.6763" x="201.1833" y="278.6189" version="1.1" preserveAspectRatio="none" viewBox="1.6 -26.72 177.52 34.84">
  <g transform="matrix(1 0 0 1 0 0)" class="aD6z1nYkhcolor"><path id="id-D6z1nYkh11" d="M10.32-25Q14.08-25 16.12-23.22Q18.16-21.44 18.64-17.76L18.64-17.76L15.32-17.32Q15.12-20.20 13.82-21.76Q12.52-23.32 10.32-23.32L10.32-23.32Q7.96-23.32 6.70-22.18Q5.44-21.04 5.44-18.96L5.44-18.96Q5.44-17.04 6.46-16.06Q7.48-15.08 10.12-14.40L10.12-14.40L12.32-13.84Q15.88-12.84 17.36-11.20Q18.84-9.56 18.84-6.64L18.84-6.64Q18.84-3.20 16.60-1.36Q14.36 0.48 10.20 0.48L10.20 0.48Q6.24 0.48 4.14-1.30Q2.04-3.08 1.60-6.76L1.60-6.76L4.84-7.24Q5.16-4.36 6.52-2.80Q7.88-1.24 10.20-1.24L10.20-1.24Q15.40-1.24 15.40-5.64L15.40-5.64Q15.40-6.96 14.96-7.76Q14.52-8.56 13.50-9.10Q12.48-9.64 10.52-10.12L10.52-10.12L8.48-10.64Q4.92-11.56 3.50-13.22Q2.08-14.88 2.08-17.92L2.08-17.92Q2.08-21.40 4.18-23.20Q6.28-25 10.32-25L10.32-25Z M26.36-9.60Q26.36-5.60 27.26-3.56Q28.16-1.52 30.64-1.52L30.64-1.52Q32.68-1.52 33.58-2.76Q34.48-4 34.56-6.52L34.56-6.52L38-6.40Q37.76-3.04 36.08-1.28Q34.40 0.48 30.56 0.48L30.56 0.48Q25.84 0.48 24.08-2.26Q22.32-5 22.32-9.60L22.32-9.60Q22.32-14.24 24.08-16.96Q25.84-19.68 30.56-19.68L30.56-19.68Q34.40-19.68 36.06-18.02Q37.72-16.36 37.96-13.16L37.96-13.16L34.56-12.72Q34.48-15.24 33.58-16.46Q32.68-17.68 30.64-17.68L30.64-17.68Q28.16-17.68 27.26-15.66Q26.36-13.64 26.36-9.60L26.36-9.60Z M50.32 0.48Q45.48 0.48 43.58-2.30Q41.68-5.08 41.68-9.60L41.68-9.60Q41.68-14.16 43.58-16.92Q45.48-19.68 50.32-19.68L50.32-19.68Q55.12-19.68 57.04-16.90Q58.96-14.12 58.96-9.60L58.96-9.60Q58.96 0.48 50.32 0.48L50.32 0.48ZM50.32-1.52Q52.96-1.52 53.94-3.64Q54.92-5.76 54.92-9.60L54.92-9.60Q54.92-13.48 53.96-15.58Q53-17.68 50.32-17.68L50.32-17.68Q47.64-17.68 46.68-15.60Q45.72-13.52 45.72-9.60L45.72-9.60Q45.72-5.72 46.68-3.62Q47.64-1.52 50.32-1.52L50.32-1.52Z M72.52-2.52L73.04-0.68Q70.92 0.48 68.96 0.48L68.96 0.48Q66.96 0.48 65.98-0.26Q65-1 64.76-2.04Q64.52-3.08 64.52-4.60L64.52-4.60L64.52-17.16L61.40-17.16L61.40-19.20L64.52-19.20L64.52-22.32L68.60-23.84L68.60-19.20L72.68-19.20L72.68-17.16L68.60-17.16L68.60-4.12Q68.60-2.80 68.94-2.30Q69.28-1.80 70.08-1.80L70.08-1.80Q71.20-1.80 72.52-2.52L72.52-2.52Z M89.64-2.04L98.20-2.04L98.20 0L85.56 0L85.56-24.52L89.64-24.52L89.64-2.04Z M103.80-21.72Q102.76-21.72 102.04-22.46Q101.32-23.20 101.32-24.20L101.32-24.20Q101.32-25.24 102.04-25.98Q102.76-26.72 103.80-26.72L103.80-26.72Q104.84-26.72 105.58-25.98Q106.32-25.24 106.32-24.20L106.32-24.20Q106.32-23.20 105.56-22.46Q104.80-21.72 103.80-21.72L103.80-21.72ZM105.72-19.20L105.72 0L101.76 0L101.76-19.20L105.72-19.20Z M124.80-19.20L127.12-19.20L120.44 0L116 0L109.44-19.20L113.48-19.20L119.08-2.04L124.80-19.20Z M132.76-21.72Q131.72-21.72 131-22.46Q130.28-23.20 130.28-24.20L130.28-24.20Q130.28-25.24 131-25.98Q131.72-26.72 132.76-26.72L132.76-26.72Q133.80-26.72 134.54-25.98Q135.28-25.24 135.28-24.20L135.28-24.20Q135.28-23.20 134.52-22.46Q133.76-21.72 132.76-21.72L132.76-21.72ZM134.68-19.20L134.68 0L130.72 0L130.72-19.20L134.68-19.20Z M151.16-19.68Q157.32-19.68 157.32-13.56L157.32-13.56L157.32 0L153.28 0L153.28-13.24Q153.28-15.40 152.52-16.42Q151.76-17.44 150.12-17.44L150.12-17.44Q147.68-17.44 145.32-15.60L145.32-15.60L145.32 0L141.28 0L141.28-19.20L143.04-19.20L144.64-17.20Q146.08-18.32 147.82-19Q149.56-19.68 151.16-19.68L151.16-19.68Z M179.12-19.20L179.12-17.52L176.32-17.52Q177.92-15.64 177.92-12.64L177.92-12.64Q177.92-9.68 176.30-7.60Q174.68-5.52 170.76-5.52L170.76-5.52Q168.08-5.52 166.32-6.40L166.32-6.40L165.24-5.36Q164.28-4.56 164.28-3.48L164.28-3.48Q164.28-2.88 164.74-2.38Q165.20-1.88 166.04-1.88L166.04-1.88L173.52-1.88Q176.08-1.88 177.56-0.56Q179.04 0.76 179.04 2.76L179.04 2.76Q179.04 5.80 176.54 6.96Q174.04 8.12 169.96 8.12L169.96 8.12Q166.04 8.12 163.86 7.04Q161.68 5.96 161.68 3.36L161.68 3.36Q161.68 2.32 162.38 1.32Q163.08 0.32 164.20-0.24L164.20-0.24Q163.16-0.60 162.54-1.38Q161.92-2.16 161.92-3.16L161.92-3.16Q161.92-4.04 162.24-4.82Q162.56-5.60 163.40-6.40L163.40-6.40L164.64-7.60Q162.88-9.36 162.88-12.64L162.88-12.64Q162.88-15.60 164.58-17.64Q166.28-19.68 170.40-19.68L170.40-19.68Q172.36-19.68 173.68-19.20L173.68-19.20L179.12-19.20ZM170.40-7.48Q172.40-7.48 173.22-8.80Q174.04-10.12 174.04-12.64L174.04-12.64Q174.04-15.12 173.22-16.42Q172.40-17.72 170.40-17.72L170.40-17.72Q168.40-17.72 167.60-16.42Q166.80-15.12 166.80-12.64L166.80-12.64Q166.80-10.12 167.60-8.80Q168.40-7.48 170.40-7.48L170.40-7.48ZM166.68 0Q166 0.56 165.58 1.42Q165.16 2.28 165.16 3.24L165.16 3.24Q165.16 4.80 166.38 5.46Q167.60 6.12 169.96 6.12L169.96 6.12Q173 6.12 174.30 5.38Q175.60 4.64 175.60 2.76L175.60 2.76Q175.60 1.44 174.64 0.72Q173.68 0 172.24 0L172.24 0L166.68 0Z"/></g>
</svg>
</g><g opacity="1" transform="rotate(0 235.0379 359.4212)">
<svg width="277.314" height="22.1698" x="235.0379" y="359.4212" version="1.1" preserveAspectRatio="none" viewBox="0.6 -26.72 435.79999999999995 34.84">
  <g transform="matrix(1 0 0 1 0 0)" class="aWdK521eOvcolor"><path id="id-WdK521eOv25" d="M9.84-26.40Q11.12-26.40 12.28-26.02Q13.44-25.64 14.64-24.92L14.64-24.92L13.28-22Q12.68-22.92 11.84-23.48Q11-24.04 10.12-24.04L10.12-24.04Q9-24.04 8.38-23.30Q7.76-22.56 7.76-21.32L7.76-21.32L7.76-19.20L11.80-19.20L11.80-17.16L7.76-17.16L7.76 0L3.72 0L3.72-17.16L0.60-17.16L0.60-19.20L3.72-19.20L3.72-20.24Q3.72-23.28 5.30-24.84Q6.88-26.40 9.84-26.40L9.84-26.40Z M26.60-19.20L30.64-19.20L30.64 0L28 0L26.88-2.40Q24.20 0.48 20.60 0.48L20.60 0.48Q17.48 0.48 16-1.14Q14.52-2.76 14.52-5.72L14.52-5.72L14.52-19.20L18.56-19.20L18.56-6.12Q18.56-1.64 22.08-1.64L22.08-1.64Q24.68-1.64 26.60-4.16L26.60-4.16L26.60-19.20Z M40.84-15.56Q41.76-17.28 43.42-18.32Q45.08-19.36 47.40-19.36L47.40-19.36L47.40-16.40Q41.24-16.40 41.24-11.60L41.24-11.60L41.20-11.60L41.20 0L37.16 0L37.16-19.20L38.92-19.20L40.84-15.56Z M60.64-19.68Q66.80-19.68 66.80-13.56L66.80-13.56L66.80 0L62.76 0L62.76-13.24Q62.76-15.40 62-16.42Q61.24-17.44 59.60-17.44L59.60-17.44Q57.16-17.44 54.80-15.60L54.80-15.60L54.80 0L50.76 0L50.76-19.20L52.52-19.20L54.12-17.20Q55.56-18.32 57.30-19Q59.04-19.68 60.64-19.68L60.64-19.68Z M74.96-21.72Q73.92-21.72 73.20-22.46Q72.48-23.20 72.48-24.20L72.48-24.20Q72.48-25.24 73.20-25.98Q73.92-26.72 74.96-26.72L74.96-26.72Q76-26.72 76.74-25.98Q77.48-25.24 77.48-24.20L77.48-24.20Q77.48-23.20 76.72-22.46Q75.96-21.72 74.96-21.72L74.96-21.72ZM76.88-19.20L76.88 0L72.92 0L72.92-19.20L76.88-19.20Z M91.24-11.04Q94.20-10.24 95.54-9Q96.88-7.76 96.88-5.40L96.88-5.40Q96.88-2.68 94.98-1.10Q93.08 0.48 89.60 0.48L89.60 0.48Q85.84 0.48 84-1.06Q82.16-2.60 81.76-5.52L81.76-5.52L85.08-5.92Q85.28-3.84 86.40-2.68Q87.52-1.52 89.60-1.52L89.60-1.52Q91.28-1.52 92.36-2.44Q93.44-3.36 93.44-4.56L93.44-4.56Q93.44-5.76 92.48-6.48Q91.52-7.20 89.32-7.76L89.32-7.76L87.40-8.32Q84.84-9 83.48-10.32Q82.12-11.64 82.12-14.04L82.12-14.04Q82.12-16.64 84.04-18.16Q85.96-19.68 89.36-19.68L89.36-19.68Q92.92-19.68 94.64-18.18Q96.36-16.68 96.72-13.80L96.72-13.80L93.40-13.52Q93.20-15.48 92.18-16.58Q91.16-17.68 89.36-17.68L89.36-17.68Q87.48-17.68 86.52-16.92Q85.56-16.16 85.56-14.92L85.56-14.92Q85.56-13.56 86.50-12.84Q87.44-12.12 89.48-11.56L89.48-11.56L91.24-11.04Z M111.60-19.68Q114.76-19.68 116.26-18.08Q117.76-16.48 117.76-13.56L117.76-13.56L117.76 0L113.72 0L113.72-13.24Q113.72-15.36 112.96-16.40Q112.20-17.44 110.56-17.44L110.56-17.44Q108.08-17.44 105.76-15.60L105.76-15.60L105.76 0L101.72 0L101.72-25.36L105.76-25.88L105.76-17.68Q107.04-18.60 108.56-19.14Q110.08-19.68 111.60-19.68L111.60-19.68Z M125.92-21.72Q124.88-21.72 124.16-22.46Q123.44-23.20 123.44-24.20L123.44-24.20Q123.44-25.24 124.16-25.98Q124.88-26.72 125.92-26.72L125.92-26.72Q126.96-26.72 127.70-25.98Q128.44-25.24 128.44-24.20L128.44-24.20Q128.44-23.20 127.68-22.46Q126.92-21.72 125.92-21.72L125.92-21.72ZM127.84-19.20L127.84 0L123.88 0L123.88-19.20L127.84-19.20Z M144.32-19.68Q150.48-19.68 150.48-13.56L150.48-13.56L150.48 0L146.44 0L146.44-13.24Q146.44-15.40 145.68-16.42Q144.92-17.44 143.28-17.44L143.28-17.44Q140.84-17.44 138.48-15.60L138.48-15.60L138.48 0L134.44 0L134.44-19.20L136.20-19.20L137.80-17.20Q139.24-18.32 140.98-19Q142.72-19.68 144.32-19.68L144.32-19.68Z M172.28-19.20L172.28-17.52L169.48-17.52Q171.08-15.64 171.08-12.64L171.08-12.64Q171.08-9.68 169.46-7.60Q167.84-5.52 163.92-5.52L163.92-5.52Q161.24-5.52 159.48-6.40L159.48-6.40L158.40-5.36Q157.44-4.56 157.44-3.48L157.44-3.48Q157.44-2.88 157.90-2.38Q158.36-1.88 159.20-1.88L159.20-1.88L166.68-1.88Q169.24-1.88 170.72-0.56Q172.20 0.76 172.20 2.76L172.20 2.76Q172.20 5.80 169.70 6.96Q167.20 8.12 163.12 8.12L163.12 8.12Q159.20 8.12 157.02 7.04Q154.84 5.96 154.84 3.36L154.84 3.36Q154.84 2.32 155.54 1.32Q156.24 0.32 157.36-0.24L157.36-0.24Q156.32-0.60 155.70-1.38Q155.08-2.16 155.08-3.16L155.08-3.16Q155.08-4.04 155.40-4.82Q155.72-5.60 156.56-6.40L156.56-6.40L157.80-7.60Q156.04-9.36 156.04-12.64L156.04-12.64Q156.04-15.60 157.74-17.64Q159.44-19.68 163.56-19.68L163.56-19.68Q165.52-19.68 166.84-19.20L166.84-19.20L172.28-19.20ZM163.56-7.48Q165.56-7.48 166.38-8.80Q167.20-10.12 167.20-12.64L167.20-12.64Q167.20-15.12 166.38-16.42Q165.56-17.72 163.56-17.72L163.56-17.72Q161.56-17.72 160.76-16.42Q159.96-15.12 159.96-12.64L159.96-12.64Q159.96-10.12 160.76-8.80Q161.56-7.48 163.56-7.48L163.56-7.48ZM159.84 0Q159.16 0.56 158.74 1.42Q158.32 2.28 158.32 3.24L158.32 3.24Q158.32 4.80 159.54 5.46Q160.76 6.12 163.12 6.12L163.12 6.12Q166.16 6.12 167.46 5.38Q168.76 4.64 168.76 2.76L168.76 2.76Q168.76 1.44 167.80 0.72Q166.84 0 165.40 0L165.40 0L159.84 0Z M184.84-11.04Q187.80-10.24 189.14-9Q190.48-7.76 190.48-5.40L190.48-5.40Q190.48-2.68 188.58-1.10Q186.68 0.48 183.20 0.48L183.20 0.48Q179.44 0.48 177.60-1.06Q175.76-2.60 175.36-5.52L175.36-5.52L178.68-5.92Q178.88-3.84 180.00-2.68Q181.12-1.52 183.20-1.52L183.20-1.52Q184.88-1.52 185.96-2.44Q187.04-3.36 187.04-4.56L187.04-4.56Q187.04-5.76 186.08-6.48Q185.12-7.20 182.92-7.76L182.92-7.76L181.00-8.32Q178.44-9 177.08-10.32Q175.72-11.64 175.72-14.04L175.72-14.04Q175.72-16.64 177.64-18.16Q179.56-19.68 182.96-19.68L182.96-19.68Q186.52-19.68 188.24-18.18Q189.96-16.68 190.32-13.80L190.32-13.80L187.00-13.52Q186.80-15.48 185.78-16.58Q184.76-17.68 182.96-17.68L182.96-17.68Q181.08-17.68 180.12-16.92Q179.16-16.16 179.16-14.92L179.16-14.92Q179.16-13.56 180.10-12.84Q181.04-12.12 183.08-11.56L183.08-11.56L184.84-11.04Z M211.28-26.40Q212.56-26.40 213.72-26.02Q214.88-25.64 216.08-24.92L216.08-24.92L214.72-22Q214.12-22.92 213.28-23.48Q212.44-24.04 211.56-24.04L211.56-24.04Q210.44-24.04 209.82-23.30Q209.20-22.56 209.20-21.32L209.20-21.32L209.20-19.20L213.24-19.20L213.24-17.16L209.20-17.16L209.20 0L205.16 0L205.16-17.16L202.04-17.16L202.04-19.20L205.16-19.20L205.16-20.24Q205.16-23.28 206.74-24.84Q208.32-26.40 211.28-26.40L211.28-26.40Z M223.56 0.48Q218.72 0.48 216.82-2.30Q214.92-5.08 214.92-9.60L214.92-9.60Q214.92-14.16 216.82-16.92Q218.72-19.68 223.56-19.68L223.56-19.68Q228.36-19.68 230.28-16.90Q232.20-14.12 232.20-9.60L232.20-9.60Q232.20 0.48 223.56 0.48L223.56 0.48ZM223.56-1.52Q226.20-1.52 227.18-3.64Q228.16-5.76 228.16-9.60L228.16-9.60Q228.16-13.48 227.20-15.58Q226.24-17.68 223.56-17.68L223.56-17.68Q220.88-17.68 219.92-15.60Q218.96-13.52 218.96-9.60L218.96-9.60Q218.96-5.72 219.92-3.62Q220.88-1.52 223.56-1.52L223.56-1.52Z M240.96-15.56Q241.88-17.28 243.54-18.32Q245.20-19.36 247.52-19.36L247.52-19.36L247.52-16.40Q241.36-16.40 241.36-11.60L241.36-11.60L241.32-11.60L241.32 0L237.28 0L237.28-19.20L239.04-19.20L240.96-15.56Z M272.76-19.20L275.08-19.20L265.28 8.12L262 7.64L265.72 0.76L257.40-19.20L261.44-19.20L267.56-4.04L272.76-19.20Z M285.88 0.48Q281.04 0.48 279.14-2.30Q277.24-5.08 277.24-9.60L277.24-9.60Q277.24-14.16 279.14-16.92Q281.04-19.68 285.88-19.68L285.88-19.68Q290.68-19.68 292.60-16.90Q294.52-14.12 294.52-9.60L294.52-9.60Q294.52 0.48 285.88 0.48L285.88 0.48ZM285.88-1.52Q288.52-1.52 289.50-3.64Q290.48-5.76 290.48-9.60L290.48-9.60Q290.48-13.48 289.52-15.58Q288.56-17.68 285.88-17.68L285.88-17.68Q283.20-17.68 282.24-15.60Q281.28-13.52 281.28-9.60L281.28-9.60Q281.28-5.72 282.24-3.62Q283.20-1.52 285.88-1.52L285.88-1.52Z M311.28-19.20L315.32-19.20L315.32 0L312.68 0L311.56-2.40Q308.88 0.48 305.28 0.48L305.28 0.48Q302.16 0.48 300.68-1.14Q299.20-2.76 299.20-5.72L299.20-5.72L299.20-19.20L303.24-19.20L303.24-6.12Q303.24-1.64 306.76-1.64L306.76-1.64Q309.36-1.64 311.28-4.16L311.28-4.16L311.28-19.20Z M325.52-15.56Q326.44-17.28 328.10-18.32Q329.76-19.36 332.08-19.36L332.08-19.36L332.08-16.40Q325.92-16.40 325.92-11.60L325.92-11.60L325.88-11.60L325.88 0L321.84 0L321.84-19.20L323.60-19.20L325.52-15.56Z M354.72-19.68Q357.88-19.68 359.38-18.08Q360.88-16.48 360.88-13.56L360.88-13.56L360.88 0L356.84 0L356.84-13.24Q356.84-15.36 356.08-16.40Q355.32-17.44 353.68-17.44L353.68-17.44Q351.20-17.44 348.88-15.60L348.88-15.60L348.88 0L344.84 0L344.84-25.36L348.88-25.88L348.88-17.68Q350.16-18.60 351.68-19.14Q353.20-19.68 354.72-19.68L354.72-19.68Z M374.24 0.48Q369.40 0.48 367.50-2.30Q365.60-5.08 365.60-9.60L365.60-9.60Q365.60-14.16 367.50-16.92Q369.40-19.68 374.24-19.68L374.24-19.68Q379.04-19.68 380.96-16.90Q382.88-14.12 382.88-9.60L382.88-9.60Q382.88 0.48 374.24 0.48L374.24 0.48ZM374.24-1.52Q376.88-1.52 377.86-3.64Q378.84-5.76 378.84-9.60L378.84-9.60Q378.84-13.48 377.88-15.58Q376.92-17.68 374.24-17.68L374.24-17.68Q371.56-17.68 370.60-15.60Q369.64-13.52 369.64-9.60L369.64-9.60Q369.64-5.72 370.60-3.62Q371.56-1.52 374.24-1.52L374.24-1.52Z M409.04-19.68Q412.12-19.68 413.62-18.08Q415.12-16.48 415.12-13.56L415.12-13.56L415.12 0L411.12 0L411.12-13.68Q411.12-15.52 410.28-16.48Q409.44-17.44 407.84-17.44L407.84-17.44Q405.44-17.44 403.40-15.68L403.40-15.68Q403.68-14.56 403.68-13.56L403.68-13.56L403.68 0L399.60 0L399.60-13.68Q399.60-17.44 396.24-17.44L396.24-17.44Q393.96-17.44 392-15.76L392-15.76L392 0L387.96 0L387.96-19.20L389.72-19.20L391.28-17.24Q392.56-18.32 394.16-19Q395.76-19.68 397.48-19.68L397.48-19.68Q401.32-19.68 402.80-17.20L402.80-17.20Q404.04-18.28 405.66-18.98Q407.28-19.68 409.04-19.68L409.04-19.68Z M436.40-9.36L424-9.36L424-9.28Q424-5.04 425.02-3.28Q426.04-1.52 428.52-1.52L428.52-1.52Q432.60-1.52 432.80-5.72L432.80-5.72L436.12-5.56Q435.84-2.76 434.08-1.14Q432.32 0.48 428.40 0.48L428.40 0.48Q423.88 0.48 421.92-2.02Q419.96-4.52 419.96-9.60L419.96-9.60Q419.96-14.16 421.82-16.92Q423.68-19.68 428.36-19.68L428.36-19.68Q432.88-19.68 434.64-16.94Q436.40-14.20 436.40-9.76L436.40-9.76L436.40-9.36ZM428.28-17.68Q426.16-17.68 425.20-16.12Q424.24-14.56 424.04-11.36L424.04-11.36L432.48-11.36Q432.36-14.48 431.42-16.08Q430.48-17.68 428.28-17.68L428.28-17.68Z"/></g>
</svg>
</g></svg>